# xmcd CD database file
#
# Track frame offsets:
#	150
#	23540
#	40349
#	54389
#	72267
#	92584
#	120811
#	133713
#	154674
#	177049
#	190591
#	216599
#
# Disc length: 3304 seconds
#
# Revision: 1
# Processed by: cddbd v1.5.1PL2 Copyright (c) Steve Scherf et al.
# Submitted via: CDex 1.51
#
DISCID=960ce60c
DTITLE=Jazz 6 - Agora é a hora
DYEAR=1998
DGENRE=Jazz
TTITLE0=Now's the time
TTITLE1=Primeira edicao
TTITLE2=It had to be you
TTITLE3=Valsinha da Eva
TTITLE4=Making whoopee
TTITLE5=Round midnaght
TTITLE6=Mares do sul
TTITLE7=Satin doll
TTITLE8=Elis
TTITLE9=I'm getting sentimental over you
TTITLE10=What a wonderful world
TTITLE11=Night in Tunisia
EXTD=YEAR: 1998
EXTT0=
EXTT1=
EXTT2=
EXTT3=
EXTT4=
EXTT5=
EXTT6=
EXTT7=
EXTT8=
EXTT9=
EXTT10=
EXTT11=
PLAYORDER=
